<?xml version="1.0" encoding="UTF-8"?>
<!DOCTYPE svg PUBLIC "-//W3C//DTD SVG 1.1//EN" "http://www.w3.org/Graphics/SVG/1.1/DTD/svg11.dtd">
<!-- Sweet Solar. Solar Energy, Fusion, Sweet, Clean, Natural, Petroleum, Gas, Gasoline, Oil, Crude, Fracking, Oil Sands, Poison, Waste, Greenhouse Gas, CO2, Carbon Dioxide, Methane, CH4, Natural Gas, 
Created by Peter MacDougall July 2026.
This work is marked CC0 1.0 Universal. To view a copy of this mark, visit https://creativecommons.org/publicdomain/zero/1.0/ 
Sunlight being collected by solar panels to represent clean capture of solar energy.
A depiction of Solar Energy capture with a sun with a happy face, solar panels, and the text Sweet Solar.
The extraction and use of petroleum products for fuel releases poisons into our environment and harms us directly and indirectly. Solar energy is abundant, clean, and cheap and should be used in place of burning petroleum products for energy.-->
<svg width="8in" height="3in" clip-rule="evenodd" fill-rule="evenodd" image-rendering="optimizeQuality" shape-rendering="geometricPrecision" text-rendering="geometricPrecision" version="1.1" viewBox="0 0 8000 3000" xml:space="preserve" xmlns="http://www.w3.org/2000/svg" xmlns:cc="http://creativecommons.org/ns#" xmlns:dc="http://purl.org/dc/elements/1.1/" xmlns:rdf="http://www.w3.org/1999/02/22-rdf-syntax-ns#" xmlns:xlink="http://www.w3.org/1999/xlink" xmlns:xodm="http://www.corel.com/coreldraw/odm/2003">
 <title>Sweet Solar Green</title>
 <defs>
  <style type="text/css">
   <![CDATA[
    .str6 {stroke:#FEFEFE;stroke-width:7.87;stroke-miterlimit:22.9256}
    .str4 {stroke:#91D8F7;stroke-width:55.56;stroke-linecap:round;stroke-linejoin:round;stroke-miterlimit:22.9256}
    .str1 {stroke:#F68E34;stroke-width:83.33;stroke-linecap:round;stroke-linejoin:round;stroke-miterlimit:22.9256}
    .str0 {stroke:#F5B531;stroke-width:83.33;stroke-linecap:round;stroke-linejoin:round;stroke-miterlimit:22.9256}
    .str3 {stroke:#4574B8;stroke-width:83.33;stroke-linecap:round;stroke-linejoin:round;stroke-miterlimit:22.9256}
    .str5 {stroke:#07A892;stroke-width:83.33;stroke-linecap:round;stroke-linejoin:round;stroke-miterlimit:22.9256}
    .str2 {stroke:#0098DA;stroke-width:83.33;stroke-linecap:round;stroke-linejoin:round;stroke-miterlimit:22.9256}
    .fil2 {fill:none}
    .fil4 {fill:#FEFEFE}
    .fil1 {fill:#FBF6AE}
    .fil0 {fill:#FAED1F}
    .fil3 {fill:url(#id0)}
   ]]>
  </style>
  <linearGradient id="id0" gradientUnits="objectBoundingBox" x1="34.4564%" y1="97.9145%" x2="65.5436%" y2="2.08553%">
   <stop offset="0" style="stop-opacity:1; stop-color:#6283C1"/>
   <stop offset="1" style="stop-opacity:1; stop-color:#7EC8EF"/>
  </linearGradient>
 </defs>
 <g id="Layer_x0020_1">
  <metadata id="CorelCorpID_0Corel-Layer"/>
  <g id="_2538417969424">
   <circle class="fil0 str0" cx="1512.73" cy="1492.35" r="932.77"/>
   <path class="fil0 str0" d="M1371.94 480.93c162.68,-40.65 237.14,-22.56 336.17,3.19 82.81,-199.89 -119.36,-380.19 -173.59,-381.3 -125.02,-2.54 -240.27,229.52 -162.58,378.1z"/>
   <path class="fil0 str0" d="M885.09 686.83c120.56,-116.54 194.09,-138.11 292.73,-165.32 -28.23,-214.52 -293.46,-269.58 -340.98,-243.42 -109.54,60.31 -93.32,318.91 48.25,408.74z"/>
   <path class="fil0 str0" d="M566.41 1108.57c46.14,-161.21 99.03,-216.65 170.85,-289.54 -131.7,-171.66 -388.94,-86.73 -417,-40.32 -64.71,107 78.64,322.84 246.15,329.85z"/>
   <path class="fil0 str0" d="M501.3 1633.14c-40.65,-162.68 -22.56,-237.14 3.19,-336.17 -199.89,-82.81 -380.19,119.36 -381.3,173.59 -2.54,125.02 229.52,240.27 378.1,162.58z"/>
   <path class="fil0 str0" d="M707.2 2119.99c-116.54,-120.56 -138.11,-194.09 -165.32,-292.73 -214.52,28.23 -269.58,293.46 -243.42,340.98 60.31,109.54 318.91,93.32 408.74,-48.25z"/>
   <path class="fil0 str0" d="M1128.94 2438.67c-161.21,-46.14 -216.65,-99.03 -289.54,-170.85 -171.66,131.7 -86.73,388.94 -40.32,417 107,64.71 322.84,-78.64 329.85,-246.15z"/>
   <path class="fil0 str0" d="M1653.52 2503.78c-162.68,40.65 -237.14,22.56 -336.17,-3.19 -82.81,199.89 119.36,380.19 173.59,381.3 125.02,2.54 240.27,-229.52 162.58,-378.1z"/>
   <path class="fil0 str0" d="M2140.37 2297.87c-120.56,116.54 -194.09,138.11 -292.73,165.32 28.23,214.52 293.46,269.58 340.98,243.42 109.54,-60.31 93.32,-318.91 -48.25,-408.74z"/>
   <path class="fil0 str0" d="M2459.04 1876.13c-46.14,161.21 -99.03,216.65 -170.85,289.54 131.7,171.66 388.94,86.73 417,40.32 64.71,-107 -78.64,-322.84 -246.15,-329.85z"/>
   <path class="fil0 str0" d="M2524.15 1351.56c40.65,162.68 22.56,237.14 -3.19,336.17 199.89,82.81 380.19,-119.36 381.3,-173.59 2.54,-125.02 -229.52,-240.27 -378.1,-162.58z"/>
   <path class="fil0 str0" d="M2318.25 864.71c116.54,120.56 138.11,194.09 165.32,292.73 214.52,-28.23 269.58,-293.46 243.42,-340.98 -60.31,-109.54 -318.91,-93.32 -408.74,48.25z"/>
   <path class="fil0 str0" d="M1896.51 546.04c161.21,46.14 216.65,99.03 289.54,170.85 171.66,-131.7 86.73,-388.94 40.32,-417 -107,-64.71 -322.84,78.64 -329.85,246.15z"/>
   <path class="fil1 str1" d="M1078.58 1651.11c-1.1,-66.39 91.65,139.91 444.94,149.25 353.29,9.34 446.15,-203.05 444.96,-135.51 -6.87,172.94 -231.41,317.66 -445.9,312.27 -214.5,-5.39 -446.3,-96.95 -444,-326.01z"/>
   <path class="fil2 str1" d="M949.65 1388.19c114.19,-117.75 289.03,-107.05 406.78,0"/>
   <path class="fil2 str1" d="M1663.72 1388.19c114.19,-117.75 289.03,-107.05 406.78,0"/>
   <line class="fil2 str1" x1="1282.21" y1="1032.79" x2="1064.55" y2= "1179.09" />
   <line class="fil2 str1" x1="1920.93" y1="1179.06" x2="1703.24" y2= "1032.81" />
  </g>
  <g id="_2538417968608">
   <path class="fil2 str2" d="M5731.48 605c-6.21,-155.7 9.12,-368.41 -113.62,-368.41 -122.74,0 -146.56,244.94 -115.34,385.96 31.22,141.02 195.12,241.39 230.66,396.93 35.54,155.53 -0.67,339.89 -115.32,339.89 -114.65,0 -131.75,-131.95 -128.91,-342.09"/>
   <ellipse class="fil2 str2" cx="6077.74" cy="783.26" rx="228.99" ry="572.1"/>
   <polyline class="fil2 str2" points="6425.17,228.46 6425.17,1351.24 6681.81,1351.24 "/>
   <g>
    <path class="fil2 str2" d="M6793.24 1356.68c-18.09,-383.04 -29,-1122.78 189.95,-1122.78 218.94,0 235.18,730.97 230.67,1122.78"/>
    <line class="fil2 str2" x1="6793.23" y1="935.63" x2="7193.49" y2= "935.63" />
   </g>
   <path class="fil2 str2" d="M7334.72 1355.23c0,-374.26 0,-748.52 0,-1122.78 236.17,0 514.73,0 491.61,298.24 -23.13,298.24 -245.13,263.15 -437.39,258.77 132.54,188.59 265.08,377.18 397.62,565.77"/>
  </g>
  <g id="_2538417970048">
   <g>
    <line class="fil2 str2" x1="5044.44" y1="301.99" x2="5046.83" y2= "1356.51" />
    <line class="fil2 str2" x1="4857.4" y1="301.54" x2="5225.23" y2= "302.42" />
   </g>
   <g>
    <line class="fil2 str2" x1="4036.79" y1="297.37" x2="4044.93" y2= "1347.65" />
    <line class="fil2 str2" x1="4050.37" y1="297.36" x2="4316.5" y2= "297.57" />
    <line class="fil2 str2" x1="4044.93" y1="1347.65" x2="4334.26" y2= "1347.92" />
    <line class="fil2 str2" x1="4042.89" y1="964.95" x2="4223.96" y2= "965.09" />
   </g>
   <g>
    <line class="fil2 str2" x1="4436.79" y1="297.37" x2="4444.93" y2= "1347.65" />
    <line class="fil2 str2" x1="4450.37" y1="297.36" x2="4716.5" y2= "297.57" />
    <line class="fil2 str2" x1="4444.93" y1="1347.65" x2="4734.26" y2= "1347.92" />
    <line class="fil2 str2" x1="4442.89" y1="964.95" x2="4623.96" y2= "965.09" />
   </g>
   <path class="fil2 str2" d="M3379.14 268.66c-9.49,447.08 -57.43,937.11 105.68,1079.83 30.47,26.67 116.42,-306.47 159.29,-306.47 42.86,0 144.13,333.74 174.38,306.47 155.94,-140.6 91.78,-613.48 74.79,-1079.83"/>
   <path class="fil2 str2" d="M3240.01 604.35c-6.17,-154.75 9.06,-366.16 -112.93,-366.16 -121.98,0 -145.66,243.44 -114.63,383.6 31.03,140.15 193.93,239.92 229.25,394.5 35.32,154.58 -0.66,337.81 -114.61,337.81 -113.95,0 -130.94,-131.14 -128.12,-340"/>
  </g>
  <g id="_2538417966784">
   <rect class="fil3 str3" x="6967.84" y="1603.2" width="870.83" height="1198.68"/>
   <line class="fil2 str4" x1="7403.26" y1="1603.2" x2="7403.26" y2= "2801.87" />
   <line class="fil2 str4" x1="6972.33" y1="1910.65" x2="7838.67" y2= "1910.65" />
   <line class="fil2 str4" x1="6972.33" y1="2198.33" x2="7838.67" y2= "2198.33" />
   <line class="fil2 str4" x1="6972.33" y1="2475.37" x2="7838.67" y2= "2475.37" />
   <rect class="fil2 str5" x="6967.84" y="1603.2" width="870.83" height="1198.68"/>
   <polygon class="fil4 str6" points="7746.49,1577.83 7751.56,1674.9 7842.3,1701.1 7754.79,1734.53 7760.22,1831.58 7701.06,1755.18 7613.68,1788.96 7664.63,1708.31 7605.19,1632.14 7695.84,1658.7 "/>
  </g>
  <g id="_2538417965728">
   <rect class="fil3 str3" x="5967.84" y="1603.2" width="870.83" height="1198.68"/>
   <line class="fil2 str4" x1="6403.26" y1="1603.2" x2="6403.26" y2= "2801.87" />
   <line class="fil2 str4" x1="5972.33" y1="1910.65" x2="6838.67" y2= "1910.65" />
   <line class="fil2 str4" x1="5972.33" y1="2198.33" x2="6838.67" y2= "2198.33" />
   <line class="fil2 str4" x1="5972.33" y1="2475.37" x2="6838.67" y2= "2475.37" />
   <rect class="fil2 str5" x="5967.84" y="1603.2" width="870.83" height="1198.68"/>
   <polygon class="fil4 str6" points="6787.11,1780.18 6792.18,1877.24 6882.92,1903.44 6795.4,1936.87 6800.84,2033.92 6741.68,1957.52 6654.29,1991.3 6705.24,1910.65 6645.8,1834.48 6736.46,1861.04 "/>
  </g>
  <g id="_2538417967360">
   <rect class="fil3 str3" x="4967.84" y="1603.2" width="870.83" height="1198.68"/>
   <line class="fil2 str4" x1="5403.26" y1="1603.2" x2="5403.26" y2= "2801.87" />
   <line class="fil2 str4" x1="4972.33" y1="1910.65" x2="5838.67" y2= "1910.65" />
   <line class="fil2 str4" x1="4972.33" y1="2198.33" x2="5838.67" y2= "2198.33" />
   <line class="fil2 str4" x1="4972.33" y1="2475.37" x2="5838.67" y2= "2475.37" />
   <rect class="fil2 str5" x="4967.84" y="1603.2" width="870.83" height="1198.68"/>
   <polygon class="fil4 str6" points="5750.17,2008.82 5755.24,2105.88 5845.98,2132.08 5758.46,2165.51 5763.9,2262.56 5704.74,2186.16 5617.35,2219.94 5668.31,2139.3 5608.87,2063.13 5699.52,2089.68 "/>
  </g>
  <g id="_2538417966928">
   <rect class="fil3 str3" x="3967.84" y="1603.2" width="870.83" height="1198.68"/>
   <line class="fil2 str4" x1="4403.26" y1="1603.2" x2="4403.26" y2= "2801.87" />
   <line class="fil2 str4" x1="3972.33" y1="1910.65" x2="4838.67" y2= "1910.65" />
   <line class="fil2 str4" x1="3972.33" y1="2198.33" x2="4838.67" y2= "2198.33" />
   <line class="fil2 str4" x1="3972.33" y1="2475.37" x2="4838.67" y2= "2475.37" />
   <rect class="fil2 str5" x="3967.84" y="1603.2" width="870.83" height="1198.68"/>
   <polygon class="fil4 str6" points="4771.49,2249.09 4776.56,2346.16 4867.3,2372.35 4779.78,2405.79 4785.22,2502.84 4726.06,2426.44 4638.67,2460.22 4689.63,2379.57 4630.19,2303.4 4720.84,2329.96 "/>
  </g>
  <g id="_2538417965776">
   <rect class="fil3 str3" x="2967.84" y="1603.2" width="870.83" height="1198.68"/>
   <line class="fil2 str4" x1="3403.26" y1="1603.2" x2="3403.26" y2= "2801.87" />
   <line class="fil2 str4" x1="2972.33" y1="1910.65" x2="3838.67" y2= "1910.65" />
   <line class="fil2 str4" x1="2972.33" y1="2198.33" x2="3838.67" y2= "2198.33" />
   <line class="fil2 str4" x1="2972.33" y1="2475.37" x2="3838.67" y2= "2475.37" />
   <rect class="fil2 str5" x="2967.84" y="1603.2" width="870.83" height="1198.68"/>
   <polygon class="fil4 str6" points="3770.43,2543.67 3775.5,2640.73 3866.24,2666.93 3778.73,2700.37 3784.17,2797.41 3725,2721.02 3637.62,2754.8 3688.57,2674.15 3629.13,2597.98 3719.78,2624.53 "/>
  </g>
 </g>
 <metadata><rdf:RDF><cc:Work rdf:about=""><dc:title>Sweet Solar</dc:title><dc:date>2026-07-16</dc:date><dc:creator><cc:Agent><dc:title>Peter MacDougall</dc:title></cc:Agent></dc:creator><cc:license rdf:resource="http://creativecommons.org/publicdomain/zero/1.0/"/><dc:rights><cc:Agent><dc:title>This work is marked CC0 1.0 Universal. To view a copy of this mark, visit https://creativecommons.org/publicdomain/zero/1.0/ </dc:title></cc:Agent></dc:rights><dc:language>English</dc:language>
 <dc:subject><rdf:Bag><rdf:li>Solar</rdf:li><rdf:li>Sweet</rdf:li><rdf:li>Cheap</rdf:li><rdf:li>Clean</rdf:li><rdf:li>Gasoline</rdf:li><rdf:li>Oil</rdf:li><rdf:li>Crude</rdf:li><rdf:li>Fracking</rdf:li><rdf:li>Oil Sands</rdf:li><rdf:li>Petroleum</rdf:li><rdf:li>Greenhouse Gas</rdf:li><rdf:li>CO2</rdf:li><rdf:li>Carbon Dioxide</rdf:li><rdf:li>Methane</rdf:li><rdf:li>CH4</rdf:li><rdf:li>Natural Gas</rdf:li><rdf:li/></rdf:Bag></dc:subject>
 <dc:description>A depiction of collection of solar energy from the sun with a happy face, solar panels, and the text Sweet Solar. The extraction and use of petroleum products for fuel releases poisons into our environment and harms us directly and indirectly. Clean, cheap, abundant solar energy should be used instead.</dc:description>
 </cc:Work><cc:License rdf:about="http://creativecommons.org/publicdomain/zero/1.0/"><cc:permits rdf:resource="http://creativecommons.org/ns#Reproduction"/><cc:permits rdf:resource="http://creativecommons.org/ns#Distribution"/><cc:permits rdf:resource="http://creativecommons.org/ns#DerivativeWorks"/></cc:License></rdf:RDF></metadata>
</svg>
