<?xml version="1.0" encoding="UTF-8"?>
<!DOCTYPE svg PUBLIC "-//W3C//DTD SVG 1.1//EN" "http://www.w3.org/Graphics/SVG/1.1/DTD/svg11.dtd">
<!-- Yuck Oil Splat. Petroleum, Gas, Gasoline, Oil, Crude, Fracking, Oil Sands, Poison, Waste, Greenhouse Gas, CO2, Carbon Dioxide, Methane, CH4, Natural Gas, 
Created by Peter MacDougall July 2026.
This work is marked CC0 1.0 Universal. To view a copy of this mark, visit https://creativecommons.org/publicdomain/zero/1.0/ 
A representation of toxic poisonous oilas a splatter of oil with a disgust expression.
A depiction of oil splatter with a disgust expression and the text YUCK OIL.
The extraction and use of petroleum products for fuel releases poisons into our environment and harms us directly and indirectly. Oil is toxic compound that should not be burned for energy when alternatives exist.-->
<svg width="8in" height="3in" clip-rule="evenodd" fill-rule="evenodd" image-rendering="optimizeQuality" shape-rendering="geometricPrecision" text-rendering="geometricPrecision" version="1.1" viewBox="0 0 8000 3000" xml:space="preserve" xmlns="http://www.w3.org/2000/svg" xmlns:cc="http://creativecommons.org/ns#" xmlns:dc="http://purl.org/dc/elements/1.1/" xmlns:rdf="http://www.w3.org/1999/02/22-rdf-syntax-ns#" xmlns:xlink="http://www.w3.org/1999/xlink" xmlns:xodm="http://www.corel.com/coreldraw/odm/2003">
 <title>YUCK Oil! Splat</title>
 <defs>
  <style type="text/css">
   <![CDATA[
    .str4 {stroke:#FEFEFE;stroke-width:41.67;stroke-miterlimit:22.9256}
    .str3 {stroke:#F4F4F4;stroke-width:83.33;stroke-linecap:round;stroke-linejoin:round;stroke-miterlimit:22.9256}
    .str0 {stroke:#373435;stroke-width:138.89;stroke-linecap:round;stroke-linejoin:round;stroke-miterlimit:22.9256}
    .str2 {stroke:#4D4433;stroke-width:41.67;stroke-linejoin:round;stroke-miterlimit:22.9256}
    .str1 {stroke:#4D4433;stroke-width:83.33;stroke-linejoin:round;stroke-miterlimit:22.9256}
    .fil0 {fill:none}
    .fil1 {fill:url(#id0)}
    .fil2 {fill:url(#id1)}
    .fil3 {fill:url(#id2)}
    .fil5 {fill:url(#id3)}
    .fil4 {fill:url(#id4)}
   ]]>
  </style>
  <linearGradient id="id0" gradientUnits="userSpaceOnUse" x1="1211.15" y1="356.2" x2="2681.51" y2="2603.32">
   <stop offset="0" style="stop-opacity:1; stop-color:#590000"/>
   <stop offset="0.054902" style="stop-opacity:1; stop-color:#2D0000"/>
   <stop offset="0.109804" style="stop-opacity:1; stop-color:black"/>
   <stop offset="0.521569" style="stop-opacity:1; stop-color:black"/>
   <stop offset="0.654902" style="stop-opacity:1; stop-color:#093159"/>
   <stop offset="0.729412" style="stop-opacity:1; stop-color:#1262B3"/>
   <stop offset="0.823529" style="stop-opacity:1; stop-color:#138B5E"/>
   <stop offset="0.870588" style="stop-opacity:1; stop-color:#15B509"/>
   <stop offset="0.890196" style="stop-opacity:1; stop-color:#69AA1D"/>
   <stop offset="0.94902" style="stop-opacity:1; stop-color:#BD9F32"/>
   <stop offset="0.984314" style="stop-opacity:1; stop-color:#BA607B"/>
   <stop offset="1" style="stop-opacity:1; stop-color:#B620C4"/>
  </linearGradient>
  <linearGradient id="id1" gradientUnits="objectBoundingBox" x1="28.1954%" y1="4.52411%" x2="71.8043%" y2="95.4752%">
   <stop offset="0" style="stop-opacity:1; stop-color:#282829"/>
   <stop offset="0.239216" style="stop-opacity:1; stop-color:#141415"/>
   <stop offset="0.470588" style="stop-opacity:1; stop-color:black"/>
   <stop offset="0.627451" style="stop-opacity:1; stop-color:#093159"/>
   <stop offset="0.709804" style="stop-opacity:1; stop-color:#1262B3"/>
   <stop offset="0.784314" style="stop-opacity:1; stop-color:#138B5E"/>
   <stop offset="0.819608" style="stop-opacity:1; stop-color:#15B509"/>
   <stop offset="0.839216" style="stop-opacity:1; stop-color:#69AA1D"/>
   <stop offset="0.901961" style="stop-opacity:1; stop-color:#BD9F32"/>
   <stop offset="0.952941" style="stop-opacity:1; stop-color:#BA607B"/>
   <stop offset="1" style="stop-opacity:1; stop-color:#B620C4"/>
  </linearGradient>
  <linearGradient id="id2" gradientUnits="objectBoundingBox" xlink:href="#id1" x1="28.1956%" y1="4.52405%" x2="71.8044%" y2="95.4753%">
  </linearGradient>
  <linearGradient id="id3" gradientUnits="userSpaceOnUse" x1="2280.19" y1="1716.43" x2="1838.17" y2="2029.88">
   <stop offset="0" style="stop-opacity:1; stop-color:#202020"/>
   <stop offset="0.184314" style="stop-opacity:1; stop-color:#606060"/>
   <stop offset="0.321569" style="stop-opacity:1; stop-color:#A0A0A0"/>
   <stop offset="0.52549" style="stop-opacity:1; stop-color:#606060"/>
   <stop offset="1" style="stop-opacity:1; stop-color:#202020"/>
  </linearGradient>
  <radialGradient id="id4" gradientUnits="userSpaceOnUse" gradientTransform="matrix(1.12649 -0.050339 -3.60816E-05 0.412761 -265 1112)" cx="2093.89" cy="1713.62" r="436.46" fx="2093.89" fy="1713.62">
   <stop offset="0" style="stop-opacity:1; stop-color:#5C5C5C"/>
   <stop offset="0.321569" style="stop-opacity:1; stop-color:#2E2E2E"/>
   <stop offset="1" style="stop-opacity:1; stop-color:black"/>
  </radialGradient>
 </defs>
 <g id="Layer_x0020_1">
  <metadata id="CorelCorpID_0Corel-Layer"/>
  <g id="_2538681952480">
   <g>
    <line class="fil0 str0" x1="3920.19" y1="917.87" x2="3838.92" y2= "1413.17" />
    <path class="fil0 str0" d="M3615.6 319.58c-56.3,309.27 -5.01,601.89 304.58,598.29 309.6,-3.61 424.34,-196.76 488.96,-598.29"/>
   </g>
   <path class="fil0 str0" d="M4627.18 308.62c-109.91,524.68 -191,1107.03 222.47,1107.03 413.47,0 505.31,-556.4 571.07,-1107.03"/>
   <path class="fil0 str0" d="M6084.29 760.8c73.47,-321.65 -29.62,-466.83 -230.31,-460.33 -200.7,6.5 -280,277.11 -315.43,478.04 -35.43,200.93 -146.37,655.08 115.63,655.08 262,0 329.76,-141.63 361.63,-398.36"/>
   <path class="fil0 str0" d="M6171.61 1416.67c65.06,-369 130.13,-738.02 195.2,-1107.03m622.7 -15.86c-55.99,312.07 -364.32,569.38 -641.24,565.06 298.52,5.76 531.56,260.17 475.91,557.83"/>
  </g>
  <g id="_2538681947536">
   <path class="fil0 str0" d="M5000.27 2189.86c-6.25,-459.11 -97.78,-518.4 -292.72,-512.05 -194.95,6.35 -225.82,270.73 -225.82,467.03 0,196.3 -30.15,640 225.82,640 255.96,0 295.99,-102 292.72,-594.98z"/>
   <line class="fil0 str0" x1="5206.44" y1="1654.46" x2="5206.44" y2= "2781.36" />
   <polyline class="fil0 str0" points="5444.28,1659.06 5444.28,2785.96 5720.9,2784.06 "/>
   <line class="fil0 str0" x1="5960.71" y1="1669.53" x2="5960.71" y2= "2430.61" />
   <line class="fil0 str0" x1="5960.71" y1="2700.85" x2="5960.71" y2= "2791.04" />
  </g>
  <g id="_2538681946432">
   <path class="fil1 str1" d="M1406.92 258.57c51.97,15.56 96.73,46.14 128.4,86.25 131.9,-63.99 246.47,-126.94 418.97,-172.77 172.5,-45.82 504.08,72.45 288.16,180.41 -179.91,167.07 128.53,225.52 248.2,225.52 119.67,0 172.69,-36.99 233.54,-97.28 69.73,56.28 132.57,120.74 187.04,191.96 19.07,-2.1 41.02,-17.3 41.02,-36.42 0,-22.26 33.71,-48.84 82.61,-48.84 48.91,0 88.54,34.2 88.54,76.39 0,18.81 -7.89,36.03 -20.96,49.34 65.34,39.82 107.76,103.98 107.76,176.35 0,45.42 -16.7,87.6 -45.28,122.56 68.58,8.27 121.67,65.28 121.67,134.38 0,74.79 -62.18,135.42 -138.89,135.42 -3.09,0 -6.14,-0.11 -9.18,-0.3 1.42,23.07 2.23,46.31 2.23,69.75 0,152.46 -30.56,297.78 -85.82,430.21 120.7,26.95 210.83,133.46 210.83,260.76 0,121.61 -82.25,224.24 -194.83,256.68 -6.45,87.32 -95.52,156.51 -204.47,156.51 -2.01,0 -4.01,-0.03 -6.01,-0.08 -8.58,76.5 -38.71,146.01 -83.8,201.52 1,-0.03 2,-0.04 3,-0.04 53.69,0 97.22,37.31 97.22,83.33 0,46.02 -43.53,83.33 -97.22,83.33 -53.69,0 -97.22,-37.31 -97.22,-83.33l0.02 -1c-52.22,31.57 -112.66,49.62 -177.1,49.62 -180.96,0 -330.5,-142.24 -354.31,-326.82 -42.12,4.81 -84.92,7.37 -128.33,7.37 -177.2,0 -344.74,-41.29 -493.63,-114.68 15.92,15.38 25.89,37.34 25.89,61.74 0,46.5 -36.21,84.2 -80.87,84.2 -44.66,0 -80.87,-37.7 -80.87,-84.2 0,-46.5 36.21,-84.2 80.87,-84.2 4.78,0 9.46,0.44 14.01,1.26 -123.92,-67.59 -233.59,-157.97 -323.48,-265.47 -33.83,32.52 -82.98,52.99 -137.67,52.99 -26.29,0 -51.29,-4.74 -73.93,-13.26 -3.78,54.53 -55.07,97.72 -117.82,97.72 -65.2,0 -118.06,-46.64 -118.06,-104.17 0,-57.53 52.85,-104.17 118.06,-104.17 3.93,0 7.81,0.17 11.64,0.5 -3.07,-11.5 -4.69,-23.48 -4.69,-35.79 0,-19.43 4.05,-38.04 11.45,-55.26 -137.85,-5.54 -247.56,-99.68 -247.56,-215.01 0,-118.89 116.59,-215.28 260.42,-215.28 15.54,0 30.77,1.13 45.56,3.29 -4.81,-42.11 -7.37,-84.89 -7.37,-128.29 0,-64.12 5.46,-126.95 15.84,-188.11 -17.02,9.23 -36.63,14.5 -57.5,14.5 -65.2,0 -118.06,-51.3 -118.06,-114.58 0,-63.28 52.85,-114.58 118.06,-114.58 40.95,0 77.03,20.24 98.2,50.98 41.67,-125.75 105.02,-241.61 185.67,-343.12 -46.67,-43.38 -75.54,-103.37 -75.54,-169.67 0,-98.14 63.3,-182.49 153.89,-219.52 -28.41,-62.81 20.8,-131.18 89.16,-131.18 64.43,0 113.17,60.83 92.54,122.56z"/>
   <g>
    <ellipse class="fil2 str2" cx="3017.77" cy="1514.5" rx="109.64" ry="114.14"/>
    <ellipse class="fil3 str2" cx="1771.71" cy="441.27" rx="80.87" ry="84.2"/>
    <ellipse class="fil2 str2" cx="1190.8" cy="813.55" rx="109.64" ry="114.14"/>
    <ellipse class="fil3 str2" cx="1368.79" cy="2167.61" rx="80.87" ry="84.2"/>
    <ellipse class="fil2 str2" cx="1161.61" cy="2587.42" rx="109.64" ry="114.14"/>
    <ellipse class="fil3 str2" cx="2828.28" cy="156.86" rx="80.87" ry="84.2"/>
   </g>
   <g>
    <path class="fil4 str3" d="M1563.93 1896.37c-1.29,77.53 107.03,-163.37 519.57,-174.28 412.54,-10.91 520.97,237.1 519.58,158.23 -8.02,-201.95 -270.21,-370.94 -520.68,-364.64 -250.47,6.3 -521.15,113.21 -518.47,380.69z"/>
    <path class="fil5 str4" d="M2107.97 1610.1c-183.24,0 -277.86,89.95 -294.34,214.65 -25.02,189.27 82.93,301.89 245.52,311.39 195.11,4.75 125.55,-221.28 201.6,-340.78 104.05,-95 30.46,-185.26 -152.78,-185.26z"/>
    <path class="fil0 str3" d="M1414.2 1225.02c133.33,-137.5 337.5,-125 475,0"/>
    <path class="fil0 str3" d="M2248.04 1225.02c133.33,-137.5 337.5,-125 475,0"/>
    <line class="fil0 str3" x1="1802.54" y1="1023.85" x2="1548.37" y2= "853.01" />
    <line class="fil0 str3" x1="2548.39" y1="853.04" x2="2294.18" y2= "1023.82" />
   </g>
  </g>
 </g>
 <metadata><rdf:RDF><cc:Work rdf:about=""><dc:title>YUCK Oil Splat</dc:title><dc:date>2026-07-16</dc:date><dc:creator><cc:Agent><dc:title>Peter MacDougall</dc:title></cc:Agent></dc:creator><cc:license rdf:resource="http://creativecommons.org/publicdomain/zero/1.0/"/><dc:rights><cc:Agent><dc:title>This work is marked CC0 1.0 Universal. To view a copy of this mark, visit https://creativecommons.org/publicdomain/zero/1.0/ </dc:title></cc:Agent></dc:rights><dc:language>English</dc:language>
 <dc:subject><rdf:Bag><rdf:li>Yuck</rdf:li><rdf:li>Disgust</rdf:li><rdf:li>Petroleum</rdf:li><rdf:li>Gas</rdf:li><rdf:li>Gasoline</rdf:li><rdf:li>Oil</rdf:li><rdf:li>Crude</rdf:li><rdf:li>Fracking</rdf:li><rdf:li>Oil Sands</rdf:li><rdf:li>Poison</rdf:li><rdf:li>Waste</rdf:li><rdf:li>Greenhouse Gas</rdf:li><rdf:li>CO2</rdf:li><rdf:li>Carbon Dioxide</rdf:li><rdf:li>Methane</rdf:li><rdf:li>CH4</rdf:li><rdf:li>Natural Gas</rdf:li><rdf:li/></rdf:Bag></dc:subject>
 <dc:description>A representation of toxic poisonous oil as a splatter of oil. A depiction of a splatter of oil with a disgust expression with the text YUCK OIL. The extraction and use of petroleum products for fuel releases poisons into our environment and harms us directly and indirectly. Alternatives should be used as much as possible.</dc:description>
 </cc:Work><cc:License rdf:about="http://creativecommons.org/publicdomain/zero/1.0/"><cc:permits rdf:resource="http://creativecommons.org/ns#Reproduction"/><cc:permits rdf:resource="http://creativecommons.org/ns#Distribution"/><cc:permits rdf:resource="http://creativecommons.org/ns#DerivativeWorks"/></cc:License></rdf:RDF></metadata>
</svg>
