<?xml version="1.0" encoding="UTF-8"?>
<!DOCTYPE svg PUBLIC "-//W3C//DTD SVG 1.1//EN" "http://www.w3.org/Graphics/SVG/1.1/DTD/svg11.dtd">
<!-- Yuck CO2 Emoji. Petroleum, Gas, Gasoline, Oil, Crude, Fracking, Oil Sands, Poison, Waste, Greenhouse Gas, CO2, Carbon Dioxide, Methane, CH4, Natural Gas, 
Created by Peter MacDougall July 2026.
This work is marked CC0 1.0 Universal. To view a copy of this mark, visit https://creativecommons.org/publicdomain/zero/1.0/ 
A representation of the harmful waste product Carbon Dioxide, CO2.
A depiction of a cloud of CO2 with a disgust expression and the text YUCK CO2.
The extraction and use of petroleum products for fuel releases poisons into our environment and harms us directly and indirectly. CO2 is a waste product that is accumulating faster than we can be absorbed and must be managed.-->
<svg width="8in" height="3in" clip-rule="evenodd" fill-rule="evenodd" image-rendering="optimizeQuality" shape-rendering="geometricPrecision" text-rendering="geometricPrecision" version="1.1" viewBox="0 0 8000 3000" xml:space="preserve" xmlns="http://www.w3.org/2000/svg" xmlns:cc="http://creativecommons.org/ns#" xmlns:dc="http://purl.org/dc/elements/1.1/" xmlns:rdf="http://www.w3.org/1999/02/22-rdf-syntax-ns#" xmlns:xlink="http://www.w3.org/1999/xlink" xmlns:xodm="http://www.corel.com/coreldraw/odm/2003">
 <title>YUCK CO2</title>
 <defs>
  <style type="text/css">
   <![CDATA[
    .str5 {stroke:#A3B350;stroke-width:41.67;stroke-miterlimit:22.9256}
    .str3 {stroke:#F2F3F3;stroke-width:27.78;stroke-miterlimit:22.9256}
    .str2 {stroke:#F1F3F4;stroke-width:27.78;stroke-miterlimit:22.9256}
    .str0 {stroke:#BAA757;stroke-width:27.78;stroke-linejoin:round;stroke-miterlimit:22.9256}
    .str1 {stroke:#BAA757;stroke-width:83.33;stroke-linejoin:round;stroke-miterlimit:22.9256}
    .str7 {stroke:#373435;stroke-width:111.11;stroke-linecap:round;stroke-linejoin:round;stroke-miterlimit:22.9256}
    .str4 {stroke:#A6903F;stroke-width:83.33;stroke-linecap:round;stroke-linejoin:round;stroke-miterlimit:22.9256}
    .str6 {stroke:#373435;stroke-width:138.89;stroke-linecap:round;stroke-linejoin:round;stroke-miterlimit:22.9256}
    .fil8 {fill:none}
    .fil0 {fill:#C4B873}
    .fil1 {fill:#77C374}
    .fil7 {fill:url(#id0)}
    .fil3 {fill:url(#id1)}
    .fil4 {fill:url(#id2)}
    .fil2 {fill:url(#id3)}
    .fil5 {fill:url(#id4)}
    .fil6 {fill:url(#id5)}
   ]]>
  </style>
  <linearGradient id="id0" gradientUnits="userSpaceOnUse" x1="2337.06" y1="1831.08" x2="1858.26" y2="2148.71">
   <stop offset="0" style="stop-opacity:1; stop-color:#B4CA51"/>
   <stop offset="1" style="stop-opacity:1; stop-color:#FEFEFE"/>
  </linearGradient>
  <linearGradient id="id1" gradientUnits="userSpaceOnUse" x1="754.74" y1="1299.62" x2="1354.73" y2="2447.58">
   <stop offset="0" style="stop-opacity:1; stop-color:#CAA149"/>
   <stop offset="0.568627" style="stop-opacity:1; stop-color:#DCDFBF"/>
   <stop offset="0.886275" style="stop-opacity:1; stop-color:#D7E3C4"/>
   <stop offset="1" style="stop-opacity:1; stop-color:#D2E8C9"/>
  </linearGradient>
  <linearGradient id="id2" gradientUnits="userSpaceOnUse" xlink:href="#id1" x1="2018.43" y1="925.54" x2="2638.36" y2="2893.2">
  </linearGradient>
  <linearGradient id="id3" gradientUnits="userSpaceOnUse" x1="1279.39" y1="172.71" x2="1845.08" y2="2435.07">
   <stop offset="0" style="stop-opacity:1; stop-color:#CAA149"/>
   <stop offset="0.74902" style="stop-opacity:1; stop-color:#DCDFBF"/>
   <stop offset="0.933333" style="stop-opacity:1; stop-color:#E0E3C4"/>
   <stop offset="1" style="stop-opacity:1; stop-color:#E4E7C9"/>
  </linearGradient>
  <linearGradient id="id4" gradientUnits="userSpaceOnUse" xlink:href="#id1" x1="2731.24" y1="1810.25" x2="2347.27" y2="2664.68">
  </linearGradient>
  <radialGradient id="id5" gradientUnits="userSpaceOnUse" gradientTransform="matrix(1.12649 -0.050339 -3.60816E-05 0.412761 -271 1165)" cx="2140.22" cy="1801.14" r="436.46" fx="2140.22" fy="1801.14">
   <stop offset="0" style="stop-opacity:1; stop-color:#FEFEFE"/>
   <stop offset="0.6" style="stop-opacity:1; stop-color:#FEFEFE"/>
   <stop offset="0.772549" style="stop-opacity:1; stop-color:#C7DCD2"/>
   <stop offset="1" style="stop-opacity:1; stop-color:#90BAA6"/>
  </radialGradient>
 </defs>
 <g id="Layer_x0020_1">
  <metadata id="CorelCorpID_0Corel-Layer"/>
  <circle class="fil0 str0" transform="matrix(0.757107 0.0662118 -0.0662118 0.757107 3074.64 519.873)" r="52.08"/>
  <circle class="fil0 str0" transform="matrix(0.757107 0.0662118 -0.0662118 0.757107 3170.22 737.362)" r="52.08"/>
  <g id="_2538414907968">
   <path class="fil1 str1" d="M3691.42 1650.56c4.54,404.33 -395.74,770.48 -677.7,632.26 78.94,340.99 -522.12,624.98 -863.26,315.58 -137.02,157.34 -348.12,249.46 -576.04,229.52 -262.35,-22.94 -477.05,-188.19 -570.35,-410.34 -72.06,20.26 -148.96,28.08 -228,21.17 -349.3,-30.55 -607.81,-337.07 -577.41,-684.64 29.02,-331.87 310.97,-581.15 640.46,-576.39 0.24,-6.22 0.64,-12.47 1.19,-18.74 30.36,-347.18 263.41,-534.7 627.88,-416.3 81.15,-341.19 281.73,-533.19 767.18,-548.63 485.45,-15.44 729,510.81 658.83,778.43 160.42,-3.72 789.54,-4.72 797.21,678.07z"/>
   <path class="fil2 str2" d="M2900.01 987.47c-20.69,44.08 -230.89,892.43 -363.88,996.61 -152.5,343.13 -1997.61,725.65 -2271.78,65.6 -229.87,-553.39 343.85,-959.18 635.85,-833.03 -146.83,-509.62 525.99,-564.34 606.57,-406.08 -134.01,-524.82 1308.49,-1106.37 1393.24,176.9z"/>
   <path class="fil3 str2" d="M1816.58 2090.75c-135.82,-192.31 -636.83,524.87 -1189.4,291.18 -885.92,-356.22 13.03,-1402.46 348.38,-803.36 46.24,-330.32 1122.31,-470.97 841.02,512.18z"/>
   <path class="fil4 str2" d="M3624.89 1890.8c-20.68,44.08 -233.07,526.27 -651.74,311.5 145,349.1 -480.43,765.06 -829.44,356.87 -88.46,124.69 -460.39,431.05 -861.86,147.22 -499,-352.79 -286.5,-814.35 -48.4,-776.08 251.54,-502.81 909.87,127.98 988.93,-233.69 22.99,-105.19 155.73,-316.77 348.23,-426.92 146.44,-533.31 1368.79,-275.61 1054.28,621.1z"/>
   <path class="fil5 str3" d="M2386.23 1793.16c499.66,-121.25 551.07,255.78 584.64,392.64 127.79,521.07 -664.79,682.41 -838.33,328.82 -118.26,-240.97 -8.77,-657.76 253.69,-721.46z"/>
  </g>
  <g id="_2538414909792">
   <path class="fil6 str4" d="M1610.26 1983.9c-1.29,77.53 107.03,-163.37 519.57,-174.28 412.54,-10.91 520.97,237.1 519.58,158.23 -8.02,-201.95 -270.21,-370.94 -520.68,-364.64 -250.47,6.3 -521.15,113.21 -518.47,380.69z"/>
   <path class="fil7 str5" d="M2122.68 1715.53c-217.96,0 -277.85,83 -294.34,207.7 -25.02,189.28 82.97,331.47 245.56,340.97 195.11,4.75 146.33,-261.28 253.64,-363.41 104.05,-95 13.1,-185.26 -204.86,-185.26z"/>
   <path class="fil8 str4" d="M1460.54 1312.55c133.33,-137.5 337.5,-125 475,0"/>
   <path class="fil8 str4" d="M2294.37 1312.55c133.33,-137.5 337.5,-125 475,0"/>
   <line class="fil8 str4" x1="1848.87" y1="1111.37" x2="1594.7" y2= "940.54" />
   <line class="fil8 str4" x1="2594.72" y1="940.56" x2="2340.51" y2= "1111.34" />
  </g>
  <g id="_2538414908112">
   <path class="fil8 str6" d="M5178.45 1939.54c-13.21,-229.61 -198.62,-358.9 -470.3,-357.81 -293.13,1.17 -598.48,145.29 -590.3,644.83 7.79,475.4 281.31,565.48 590.14,562.38 308.71,-3.1 478.73,-121.43 490.01,-357.39"/>
   <ellipse class="fil8 str6" cx="5937.01" cy="2181.82" rx="570.46" ry="596.36"/>
   <path class="fil8 str7" d="M6671.51 2450.18c1.88,-83.13 -23.77,-164 245.61,-164 269.39,0 269.39,87.26 269.39,164 0,108.09 -513.12,119.27 -513.12,331.72 213.93,3.72 338.82,-3.73 552.74,0"/>
  </g>
  <g id="_2538414908592">
   <g>
    <line class="fil8 str6" x1="4295.8" y1="876.23" x2="4206.07" y2= "1371.54" />
    <path class="fil8 str6" d="M3959.53 277.94c-62.15,309.27 -5.52,601.89 336.26,598.29 341.8,-3.61 468.47,-196.76 539.8,-598.29"/>
   </g>
   <path class="fil8 str6" d="M5076.31 266.99c-121.34,524.68 -210.87,1107.03 245.6,1107.03 456.47,0 557.85,-556.4 630.46,-1107.03"/>
   <path class="fil8 str6" d="M6684.94 719.17c81.11,-321.65 -32.7,-466.83 -254.26,-460.33 -221.57,6.5 -309.12,277.11 -348.23,478.04 -39.11,200.93 -161.59,655.08 127.66,655.08 289.24,0 364.06,-141.63 399.24,-398.36"/>
   <path class="fil8 str6" d="M6781.34 1375.04c71.83,-369 143.67,-738.02 215.5,-1107.03m687.45 -15.86c-61.81,312.07 -402.21,569.38 -707.93,565.06 329.56,5.76 586.83,260.17 525.39,557.83"/>
  </g>
  <g id="_2538414907680">
   <line class="fil8 str6" x1="7500.84" y1="1637.9" x2="7500.84" y2= "2398.98" />
   <line class="fil8 str6" x1="7500.84" y1="2669.22" x2="7500.84" y2= "2759.41" />
  </g>
 </g>
 <metadata><rdf:RDF><cc:Work rdf:about=""><dc:title>YUCK CO2</dc:title><dc:date>2026-07-16</dc:date><dc:creator><cc:Agent><dc:title>Peter MacDougall</dc:title></cc:Agent></dc:creator><cc:license rdf:resource="http://creativecommons.org/publicdomain/zero/1.0/"/><dc:rights><cc:Agent><dc:title>This work is marked CC0 1.0 Universal. To view a copy of this mark, visit https://creativecommons.org/publicdomain/zero/1.0/ </dc:title></cc:Agent></dc:rights><dc:language>English</dc:language>
 <dc:subject><rdf:Bag><rdf:li>Petroleum</rdf:li><rdf:li>Gas</rdf:li><rdf:li>Gasoline</rdf:li><rdf:li>Oil</rdf:li><rdf:li>Crude</rdf:li><rdf:li>Fracking</rdf:li><rdf:li>Oil Sands</rdf:li><rdf:li>Poison</rdf:li><rdf:li>Waste</rdf:li><rdf:li>Greenhouse Gas</rdf:li><rdf:li>CO2</rdf:li><rdf:li>Carbon Dioxide</rdf:li><rdf:li>Methane</rdf:li><rdf:li>CH4</rdf:li><rdf:li>Natural Gas</rdf:li><rdf:li/></rdf:Bag></dc:subject>
 <dc:description>A depiction of a cloud of harmful waste CO2, Carbon Dioxide, with a disgust expression and the text YUCK CO2. The extraction and use of petroleum products for fuel releases poisons into our environment and harms us directly and indirectly. CO2 traps heat, warming the environment beyond survivability.</dc:description>
 </cc:Work><cc:License rdf:about="http://creativecommons.org/publicdomain/zero/1.0/"><cc:permits rdf:resource="http://creativecommons.org/ns#Reproduction"/><cc:permits rdf:resource="http://creativecommons.org/ns#Distribution"/><cc:permits rdf:resource="http://creativecommons.org/ns#DerivativeWorks"/></cc:License></rdf:RDF></metadata>
</svg>
